#!OML:ASF H:\LiuWeirdWalks\Patient Classification 1\Patient 1\Session 1\male.ASF
:FULLY-SPECIFIED
:DEGREES
275
root 0.266098 17.9395 -0.956079 2.82792 9.51257 -4.01371
lowerback 8.11215 -2.10513 3.80399
upperback -0.186443 -2.20671 4.64896
thorax -4.71231 -1.12267 2.97739
lowerneck -17.1769 -3.22852 1.78722
upperneck 18.6754 -4.4228 -2.33759
head 8.55696 -2.20424 -1.62287
rclavicle 2.96189e-014 -4.77083e-015
rhumerus -46.3509 -10.174 -75.9635
rradius 20.6501
rwrist 6.66778
rhand -3.44131 -3.15904
rfingers 7.12502
rthumb 22.2904 -31.8934
lclavicle 2.96189e-014 -4.77083e-015
lhumerus -37.5277 -18.2998 80.5638
lradius 96.1622
lwrist 11.2053
lhand -23.6118 -11.9669
lfingers 7.12502
lthumb 2.85229 17.9938
rfemur -6.68614 2.39512 29.8778
rtibia 28.8106
rfoot -15.0738 -27.3001
rtoes -0.825351
lfemur -31.2026 4.62585 -13.7756
ltibia 54.6676
lfoot -8.77124 10.3323
ltoes -15.9466
276
root 0.279768 17.9256 -0.782371 2.9949 9.03119 -4.25238
lowerback 8.09517 -2.06488 4.07354
upperback -0.151956 -2.13181 4.62494
thorax -4.67942 -1.09197 2.79029
lowerneck -17.211 -3.13368 1.8378
upperneck 18.5733 -4.29404 -2.39185
head 8.529 -2.1469 -1.63267
rclavicle 1.08338e-014 -2.46493e-014
rhumerus -46.3757 -9.28966 -77.0611
rradius 20.7327
rwrist 6.45698
rhand -3.52556 -3.05561
rfingers 7.12502
rthumb 22.2095 -31.7996
lclavicle 1.08338e-014 -2.46493e-014
lhumerus -37.0246 -17.6156 79.7098
lradius 97.0769
lwrist 12.3029
lhand -23.7595 -12.4978
lfingers 7.12502
lthumb 2.70962 17.4647
rfemur -5.8591 2.58043 30.1667
rtibia 28.0635
rfoot -15.2827 -27.0874
rtoes -0.92532
lfemur -32.2887 4.63121 -13.5816
ltibia 53.1037
lfoot -8.68407 10.6208
ltoes -15.91
277
root 0.294432 17.9103 -0.608623 3.17952 8.51305 -4.51322
lowerback 8.06603 -2.00976 4.359
upperback -0.115174 -2.0365 4.61012
thorax -4.63703 -1.05122 2.60107
lowerneck -17.2524 -3.04518 1.87408
upperneck 18.471 -4.17209 -2.43878
head 8.50274 -2.09294 -1.63867
rclavicle -9.24349e-015 -1.19271e-014
rhumerus -46.3693 -8.46875 -78.076
rradius 20.8362
rwrist 6.16614
rhand -3.6044 -2.98827
rfingers 7.12502
rthumb 22.1338 -31.7413
lclavicle -9.24349e-015 -1.19271e-014
lhumerus -36.5627 -16.9048 78.9023
lradius 97.9247
lwrist 13.4042
lhand -23.8558 -12.8834
lfingers 7.12502
lthumb 2.61667 17.0803
rfemur -5.03996 2.76985 30.4629
rtibia 27.2937
rfoot -15.4955 -26.8474
rtoes -0.995801
lfemur -33.3222 4.63864 -13.3413
ltibia 51.4418
lfoot -8.54437 10.8985
ltoes -15.8624
278
root 0.309758 17.893 -0.434895 3.39022 7.96728 -4.79607
lowerback 8.01112 -1.94211 4.65567
upperback -0.0825509 -1.92512 4.60664
thorax -4.58361 -1.00242 2.41487
lowerneck -17.296 -2.94926 1.92593
upperneck 18.3496 -4.03773 -2.5161
head 8.4698 -2.03543 -1.65561
rclavicle 2.62396e-014 -1.51076e-014
rhumerus -46.3429 -7.70381 -79.0061
rradius 20.9856
rwrist 5.76359
rhand -3.63644 -2.99842
rfingers 7.12502
rthumb 22.103 -31.7551
lclavicle 2.62396e-014 -1.51076e-014
lhumerus -36.1457 -16.1741 78.1513
lradius 98.6836
lwrist 14.4599
lhand -23.9254 -13.1277
lfingers 7.12502
lthumb 2.5494 16.8368
rfemur -4.24295 2.93956 30.7667
rtibia 26.5117
rfoot -15.7273 -26.5779
rtoes -1.01751
lfemur -34.3148 4.64281 -13.0508
ltibia 49.6927
lfoot -8.3505 11.1465
ltoes -15.8543
279
root 0.325393 17.8738 -0.260301 3.61624 7.39223 -5.08381
lowerback 7.93305 -1.86042 4.93689
upperback -0.0453908 -1.79905 4.61042
thorax -4.51052 -0.945551 2.2424
lowerneck -17.3228 -2.86081 1.95595
upperneck 18.2378 -3.91301 -2.56924
head 8.43815 -1.98123 -1.66188
rclavicle 5.36719e-015 -1.19271e-014
rhumerus -46.2777 -6.99029 -79.8566
rradius 21.1554
rwrist 5.27889
rhand -3.64545 -3.06816
rfingers 7.12502
rthumb 22.0944 -31.8258
lclavicle 5.36719e-015 -1.19271e-014
lhumerus -35.7847 -15.4265 77.4595
lradius 99.3651
lwrist 15.4467
lhand -23.9814 -13.2081
lfingers 7.12502
lthumb 2.49534 16.757
rfemur -3.45038 3.13969 31.0698
rtibia 25.7287
rfoot -15.9749 -26.3322
rtoes -0.99565
lfemur -35.2477 4.64168 -12.7212
ltibia 47.8656
lfoot -8.11896 11.3511
ltoes -15.8586
280
root 0.340655 17.8519 -0.0853614 3.85586 6.7897 -5.36765
lowerback 7.84825 -1.76532 5.17989
upperback -0.00467315 -1.65983 4.62356
thorax -4.42722 -0.880881 2.09957
lowerneck -17.3462 -2.7672 2.00907
upperneck 18.1009 -3.78031 -2.6563
head 8.3965 -1.92541 -1.68182
rclavicle 3.27995e-014 -5.48646e-014
rhumerus -46.1709 -6.31773 -80.6264
rradius 21.3535
rwrist 4.70624
rhand -3.61454 -3.20855
rfingers 7.12502
rthumb 22.1241 -31.9627
lclavicle 3.27995e-014 -5.48646e-014
lhumerus -35.4858 -14.6634 76.8336
lradius 99.9635
lwrist 16.337
lhand -24.0478 -13.1511
lfingers 7.12502
lthumb 2.43124 16.8148
rfemur -2.67079 3.34299 31.3615
rtibia 24.9581
rfoot -16.225 -26.0903
rtoes -0.955036
lfemur -36.1204 4.63314 -12.3559
ltibia 45.9699
lfoot -7.86029 11.5104
ltoes -15.8952
